<?xml version="1.0" encoding="UTF-8" standalone="no"?>
<!DOCTYPE svg PUBLIC "-//W3C//DTD SVG 1.1//EN"
 "http://www.w3.org/Graphics/SVG/1.1/DTD/svg11.dtd">
<!-- Generated by graphviz version 2.43.0 (0)
 -->
<!-- Title: G Pages: 1 -->
<svg width="1252pt" height="116pt"
 viewBox="0.00 0.00 1252.00 116.00" xmlns="http://www.w3.org/2000/svg" xmlns:xlink="http://www.w3.org/1999/xlink">
<g id="graph0" class="graph" transform="scale(1 1) rotate(0) translate(4 112)">
<title>G</title>
<polygon fill="white" stroke="transparent" points="-4,4 -4,-112 1248,-112 1248,4 -4,4"/>
<!-- Debugging -->
<g id="node1" class="node">
<title>Debugging</title>
<polygon fill="lightblue" stroke="lightblue" points="95,-36 0,-36 0,0 95,0 95,-36"/>
<text text-anchor="middle" x="47.5" y="-14.3" font-family="Times,serif" font-size="14.00">Debugging</text>
</g>
<!-- Diagnostics -->
<g id="node2" class="node">
<title>Diagnostics</title>
<polygon fill="lightblue" stroke="lightblue" points="213.5,-36 113.5,-36 113.5,0 213.5,0 213.5,-36"/>
<text text-anchor="middle" x="163.5" y="-14.3" font-family="Times,serif" font-size="14.00">Diagnostics</text>
</g>
<!-- Files -->
<g id="node3" class="node">
<title>Files</title>
<polygon fill="lightblue" stroke="lightblue" points="285.5,-36 231.5,-36 231.5,0 285.5,0 285.5,-36"/>
<text text-anchor="middle" x="258.5" y="-14.3" font-family="Times,serif" font-size="14.00">Files</text>
</g>
<!-- FoxBasic -->
<g id="node4" class="node">
<title>FoxBasic</title>
<polygon fill="lightblue" stroke="lightblue" points="383.5,-36 303.5,-36 303.5,0 383.5,0 383.5,-36"/>
<text text-anchor="middle" x="343.5" y="-14.3" font-family="Times,serif" font-size="14.00">FoxBasic</text>
</g>
<!-- FoxGlobal -->
<g id="node5" class="node">
<title>FoxGlobal</title>
<polygon fill="lightblue" stroke="lightblue" points="489.5,-36 401.5,-36 401.5,0 489.5,0 489.5,-36"/>
<text text-anchor="middle" x="445.5" y="-14.3" font-family="Times,serif" font-size="14.00">FoxGlobal</text>
</g>
<!-- FoxIntermediateCode -->
<g id="node6" class="node">
<title>FoxIntermediateCode</title>
<polygon fill="lightblue" stroke="lightblue" points="679,-36 508,-36 508,0 679,0 679,-36"/>
<text text-anchor="middle" x="593.5" y="-14.3" font-family="Times,serif" font-size="14.00">FoxIntermediateCode</text>
</g>
<!-- FoxIntermediateParser -->
<g id="node7" class="node">
<title>FoxIntermediateParser</title>
<polygon fill="lightblue" stroke="lightblue" points="684.5,-108 502.5,-108 502.5,-72 684.5,-72 684.5,-108"/>
<text text-anchor="middle" x="593.5" y="-86.3" font-family="Times,serif" font-size="14.00">FoxIntermediateParser</text>
</g>
<!-- FoxIntermediateParser&#45;&gt;Debugging -->
<g id="edge3" class="edge">
<title>FoxIntermediateParser&#45;&gt;Debugging</title>
<path fill="none" stroke="black" d="M502.17,-84.08C405.58,-77.74 248.81,-64.25 105.12,-35.9"/>
<polygon fill="black" stroke="black" points="105.73,-32.45 95.23,-33.92 104.35,-39.32 105.73,-32.45"/>
</g>
<!-- FoxIntermediateParser&#45;&gt;Diagnostics -->
<g id="edge2" class="edge">
<title>FoxIntermediateParser&#45;&gt;Diagnostics</title>
<path fill="none" stroke="black" d="M502.16,-79.53C429.11,-71.13 324.01,-57.19 223.61,-36.08"/>
<polygon fill="black" stroke="black" points="224.1,-32.61 213.59,-33.95 222.64,-39.45 224.1,-32.61"/>
</g>
<!-- FoxIntermediateParser&#45;&gt;Files -->
<g id="edge10" class="edge">
<title>FoxIntermediateParser&#45;&gt;Files</title>
<path fill="none" stroke="black" d="M502.37,-79.23C444.92,-71.6 369.39,-58.83 295.63,-35.92"/>
<polygon fill="black" stroke="black" points="296.3,-32.46 285.71,-32.77 294.19,-39.13 296.3,-32.46"/>
</g>
<!-- FoxIntermediateParser&#45;&gt;FoxBasic -->
<g id="edge8" class="edge">
<title>FoxIntermediateParser&#45;&gt;FoxBasic</title>
<path fill="none" stroke="black" d="M523.37,-71.9C487.01,-62.71 441.73,-50.76 393.26,-36.13"/>
<polygon fill="black" stroke="black" points="394.12,-32.73 383.53,-33.17 392.08,-39.43 394.12,-32.73"/>
</g>
<!-- FoxIntermediateParser&#45;&gt;FoxGlobal -->
<g id="edge11" class="edge">
<title>FoxIntermediateParser&#45;&gt;FoxGlobal</title>
<path fill="none" stroke="black" d="M557.3,-71.88C537.24,-62.39 512.13,-50.51 490.79,-40.42"/>
<polygon fill="black" stroke="black" points="492.12,-37.18 481.59,-36.07 489.13,-43.51 492.12,-37.18"/>
</g>
<!-- FoxIntermediateParser&#45;&gt;FoxIntermediateCode -->
<g id="edge7" class="edge">
<title>FoxIntermediateParser&#45;&gt;FoxIntermediateCode</title>
<path fill="none" stroke="black" d="M593.5,-71.7C593.5,-63.98 593.5,-54.71 593.5,-46.11"/>
<polygon fill="black" stroke="black" points="597,-46.1 593.5,-36.1 590,-46.1 597,-46.1"/>
</g>
<!-- Strings -->
<g id="node8" class="node">
<title>Strings</title>
<polygon fill="lightblue" stroke="lightblue" points="766,-36 697,-36 697,0 766,0 766,-36"/>
<text text-anchor="middle" x="731.5" y="-14.3" font-family="Times,serif" font-size="14.00">Strings</text>
</g>
<!-- FoxIntermediateParser&#45;&gt;Strings -->
<g id="edge1" class="edge">
<title>FoxIntermediateParser&#45;&gt;Strings</title>
<path fill="none" stroke="black" d="M627.26,-71.88C645.72,-62.51 668.78,-50.81 688.52,-40.8"/>
<polygon fill="black" stroke="black" points="690.28,-43.83 697.61,-36.19 687.11,-37.59 690.28,-43.83"/>
</g>
<!-- FoxSyntaxTree -->
<g id="node9" class="node">
<title>FoxSyntaxTree</title>
<polygon fill="lightblue" stroke="lightblue" points="908.5,-36 784.5,-36 784.5,0 908.5,0 908.5,-36"/>
<text text-anchor="middle" x="846.5" y="-14.3" font-family="Times,serif" font-size="14.00">FoxSyntaxTree</text>
</g>
<!-- FoxIntermediateParser&#45;&gt;FoxSyntaxTree -->
<g id="edge4" class="edge">
<title>FoxIntermediateParser&#45;&gt;FoxSyntaxTree</title>
<path fill="none" stroke="black" d="M655.07,-71.97C691.19,-61.97 736.99,-49.3 774.74,-38.85"/>
<polygon fill="black" stroke="black" points="775.95,-42.15 784.66,-36.11 774.09,-35.4 775.95,-42.15"/>
</g>
<!-- FoxScanner -->
<g id="node10" class="node">
<title>FoxScanner</title>
<polygon fill="lightblue" stroke="lightblue" points="1028,-36 927,-36 927,0 1028,0 1028,-36"/>
<text text-anchor="middle" x="977.5" y="-14.3" font-family="Times,serif" font-size="14.00">FoxScanner</text>
</g>
<!-- FoxIntermediateParser&#45;&gt;FoxScanner -->
<g id="edge5" class="edge">
<title>FoxIntermediateParser&#45;&gt;FoxScanner</title>
<path fill="none" stroke="black" d="M684.81,-76.9C747.53,-67.93 832.82,-54.42 916.89,-36"/>
<polygon fill="black" stroke="black" points="917.86,-39.37 926.86,-33.79 916.34,-32.53 917.86,-39.37"/>
</g>
<!-- FoxSections -->
<g id="node11" class="node">
<title>FoxSections</title>
<polygon fill="lightblue" stroke="lightblue" points="1149,-36 1046,-36 1046,0 1149,0 1149,-36"/>
<text text-anchor="middle" x="1097.5" y="-14.3" font-family="Times,serif" font-size="14.00">FoxSections</text>
</g>
<!-- FoxIntermediateParser&#45;&gt;FoxSections -->
<g id="edge6" class="edge">
<title>FoxIntermediateParser&#45;&gt;FoxSections</title>
<path fill="none" stroke="black" d="M684.72,-82.33C772.66,-74.94 909.49,-60.91 1036.05,-36.13"/>
<polygon fill="black" stroke="black" points="1036.79,-39.55 1045.92,-34.17 1035.43,-32.69 1036.79,-39.55"/>
</g>
<!-- Streams -->
<g id="node12" class="node">
<title>Streams</title>
<polygon fill="lightblue" stroke="lightblue" points="1244,-36 1167,-36 1167,0 1244,0 1244,-36"/>
<text text-anchor="middle" x="1205.5" y="-14.3" font-family="Times,serif" font-size="14.00">Streams</text>
</g>
<!-- FoxIntermediateParser&#45;&gt;Streams -->
<g id="edge9" class="edge">
<title>FoxIntermediateParser&#45;&gt;Streams</title>
<path fill="none" stroke="black" d="M684.63,-87.53C795.09,-84.16 986.63,-73.24 1156.85,-36.07"/>
<polygon fill="black" stroke="black" points="1157.74,-39.46 1166.74,-33.88 1156.22,-32.63 1157.74,-39.46"/>
</g>
</g>
</svg>
